<?xml version="1.0" encoding="utf-8"?>
<!-- Generator: Adobe Illustrator 21.0.2, SVG Export Plug-In . SVG Version: 6.00 Build 0)  -->
<svg version="1.1" id="Layer_1" xmlns="http://www.w3.org/2000/svg" xmlns:xlink="http://www.w3.org/1999/xlink" x="0px" y="0px"
	 viewBox="0 0 297.3 113" style="enable-background:new 0 0 297.3 113;" xml:space="preserve">
<style type="text/css">
	.st0{fill:#404041;}
	.st1{fill:#F8C340;}
</style>
<g>
	<path class="st0" d="M49.5,12.7c9.8,0.5,16.8,4.9,21.1,10.6l0.8,1.1L57.9,36.2l-0.9-1c-3.1-3.8-7.2-5.7-12.6-5.7
		c-5.4,0-10.2,1.7-14.7,5.2c-4.5,3.6-7.2,7.8-8.1,12.7c-1,5,0.1,9.1,3.2,12.7c3.1,3.5,7.2,5.2,12.6,5.2c5.4,0,10.2-1.9,14.8-5.7
		l1.3-1l8.9,11.9l-1.2,1.1c-3.7,3.3-7.8,5.8-12.5,7.8c-4.7,1.9-9.6,2.8-14.6,2.8c-9.9,0-17.8-3.5-23.6-10.1
		c-5.3-6.8-7-15.1-5.2-24.6c1.9-9.5,6.8-17.8,14.7-24.7c8.4-6.8,17.6-10.3,27.5-10.3h1.9L49.5,12.7z"/>
	<path class="st0" d="M98.8,13.1L98.8,13.1l1.4,0c11.3,0,19.9,4.1,25.1,10.1c4.8,6.2,6.1,14.4,4.2,24.3c-1.9,9.9-6.5,18.1-13.7,24.2
		c-9.2,6.7-19.9,10.1-31.8,10.1H65.7L79,13.1H98.8z"/>
	<path class="st0" d="M141.7,12.8h44l-3.2,16.7h-27.7L153,39h21.3L171,55.7h-21.3l-1.8,9.4h27.7l-3.2,16.7h-44L141.7,12.8z"/>
	<path class="st0" d="M253.5,13l-44.1,68.7h-3.4L188.8,13h16.7l8.8,35.4L236.7,13H253.5z"/>
</g>
<g id="JacypC.tif_1_">
	<g>
		<path class="st1" d="M130.4,2.8c-1.9,2.9-3.8,5.8-5.8,8.7c-4,5.8-8,11.6-11.9,17.4c-0.3,0.5-0.6,0.9-1,1.6c2.2,0,4.1,0,6.6,0
			c-13.6,13.9-27,27.4-40.4,41c-0.1,0-0.3-0.1-0.4-0.1c6.8-13.6,13.7-27.2,20.6-41c-3.9,0-7.4,0-11.4,0c0.5-0.8,0.8-1.3,1.1-1.8
			c4.3-6.2,8.7-12.5,12.8-18.7c2.5-3.8,6.5-6.3,12.6-7c0.2,0,0.4-0.1,0.5-0.2C119.4,2.8,124.9,2.8,130.4,2.8z"/>
	</g>
</g>
<g>
	<path class="st0" d="M10.7,98.6L10.7,98.6l0.2,0c1.8,0,3.2,0.7,4,1.6c0.8,1,1,2.3,0.7,3.9c-0.3,1.6-1,2.9-2.2,3.9
		c-1.5,1.1-3.2,1.6-5.1,1.6H5.4l2.1-11H10.7z M10.4,101.2H9.7l-1.1,5.6h0.3c2,0,3.5-1,4.1-2.8C13.3,102.2,12.2,101.2,10.4,101.2z"/>
	<path class="st0" d="M18.3,98.5h7l-0.5,2.7h-4.4l-0.3,1.5h3.4l-0.5,2.7h-3.4l-0.3,1.5h4.4l-0.5,2.7h-7L18.3,98.5z"/>
	<path class="st0" d="M36.8,98.6l-7.1,11h-0.5l-2.8-11h2.7l1.4,5.7l3.6-5.7H36.8z"/>
	<path class="st0" d="M38.5,98.5h7l-0.5,2.7h-4.4l-0.3,1.5h3.4l-0.5,2.7h-3.4l-0.3,1.5H44l-0.5,2.7h-7L38.5,98.5z"/>
	<path class="st0" d="M47.1,98.6h2.5l-1.6,8.3h4.5l-0.5,2.7h-7L47.1,98.6z"/>
	<path class="st0" d="M60,98.5c1.6,0,2.6,0.6,3.5,1.6c0.8,1.1,1.1,2.4,0.8,3.9c-0.3,1.5-1.1,2.9-2.4,3.9c-1.3,1.1-2.6,1.6-4.2,1.6
		c-1.6,0-2.6-0.6-3.5-1.6c-0.8-1.1-1.1-2.4-0.8-3.9c0.3-1.5,1.1-2.8,2.4-3.9C57.2,99,58.4,98.5,60,98.5z M59.5,101.2
		c-0.9,0-1.4,0.3-2.1,0.8c-0.7,0.6-1.1,1.2-1.3,2c-0.2,0.8,0,1.5,0.5,2c0.5,0.6,1,0.8,1.8,0.8c0.8,0,1.4-0.3,2.1-0.8
		c0.7-0.6,1.1-1.2,1.3-2c0.2-0.8,0-1.5-0.5-2C60.8,101.5,60.3,101.2,59.5,101.2z"/>
	<path class="st0" d="M65,109.6l2.1-11h4c1.2,0,2.1,0.4,2.7,1.2c0.6,0.8,0.8,1.7,0.6,2.8c-0.2,1.1-0.8,2-1.7,2.8
		c-0.9,0.8-2,1.2-3.2,1.2h-1.5l-0.6,3.1H65z M70.7,101.2h-1.4l-0.5,2.6l1.4,0c0.7,0,1.5-0.5,1.7-1.3C72,101.8,71.4,101.2,70.7,101.2
		z"/>
	<path class="st0" d="M77.3,98.5l3.6,7l6.3-7h0.5l-2.1,11h-2.5l0.8-4.1l-3.7,4l-2.2-4l-0.8,4.1h-2.5l2.1-11H77.3z"/>
	<path class="st0" d="M89.9,98.5h7l-0.5,2.7H92l-0.3,1.5h3.4l-0.5,2.7h-3.4l-0.3,1.5h4.4l-0.5,2.7h-7L89.9,98.5z"/>
	<path class="st0" d="M99,98.5l4.9,5.8l1.1-5.8h2.6l-2.1,11h-0.6l-4.8-5.8l-1.1,5.8h-2.6l2.1-11H99z"/>
	<path class="st0" d="M109.2,98.6h8l-0.5,2.7H114l-1.5,8.3h-2.8l1.6-8.3h-2.6L109.2,98.6z"/>
	<path class="st0" d="M119.9,109.6l7.1-11h0.6l2.8,11h-2.7l-0.4-1.7h-3.5l-1.1,1.7H119.9z M125.2,105.7h1.3l-0.4-1.5L125.2,105.7z"
		/>
	<path class="st0" d="M132.1,98.6h8l-0.5,2.7H137l-1.5,8.3h-2.8l1.6-8.3h-2.6L132.1,98.6z"/>
	<path class="st0" d="M145,98.6h8l-0.5,2.7h-2.6l-1.5,8.3h-2.8l1.6-8.3h-2.6L145,98.6z"/>
	<path class="st0" d="M154.4,98.6h2.5l-0.8,4.2h3.4l0.8-4.2h2.5l-2.1,11h-2.5l0.8-4.2h-3.4l-0.8,4.2h-2.5L154.4,98.6z"/>
	<path class="st0" d="M164.8,98.5h7l-0.5,2.7h-4.4l-0.3,1.5h3.4l-0.5,2.7h-3.4l-0.3,1.5h4.4l-0.5,2.7h-7L164.8,98.5z"/>
	<path class="st0" d="M177.8,106.1c-0.1,0.4,0.3,0.8,0.8,0.9h0h0.1c0.5,0,1.2-0.4,1.2-0.8c0.1-0.7-0.9-0.8-1.8-1.1
		c-1.3-0.5-2.3-1.6-2-3.1c0.4-1.9,2.2-3.4,4.2-3.4c1.9,0,3,1.3,2.9,3.1l0,0.2l-2.7,0.6c0.1-0.7,0-1.2-0.7-1.2c-0.5,0-1,0.4-1.1,0.8
		c-0.1,0.7,0.9,1,1.7,1.2c1.4,0.4,2.4,1.5,2.1,3c-0.4,1.9-2.3,3.4-4.4,3.4c-1.9,0-3.2-1.3-3.1-3.1l0-0.2l2.7-0.6L177.8,106.1z"/>
	<path class="st0" d="M183.4,109.6l2.1-11h4c1.2,0,2.1,0.4,2.7,1.2c0.6,0.8,0.8,1.7,0.6,2.8c-0.2,1.1-0.8,2-1.7,2.8
		c-0.9,0.8-2,1.2-3.2,1.2h-1.5l-0.6,3.1H183.4z M189,101.2h-1.4l-0.5,2.6l1.4,0c0.7,0,1.5-0.5,1.7-1.3
		C190.4,101.8,189.8,101.2,189,101.2z"/>
	<path class="st0" d="M195.2,98.5h7l-0.5,2.7h-4.4l-0.3,1.5h3.4l-0.5,2.7h-3.4l-0.3,1.5h4.4l-0.5,2.7h-7L195.2,98.5z"/>
	<path class="st0" d="M203.7,98.5h7l-0.5,2.7h-4.4l-0.3,1.5h3.4l-0.5,2.7H205l-0.3,1.5h4.4l-0.5,2.7h-7L203.7,98.5z"/>
	<path class="st0" d="M215.4,98.6L215.4,98.6l0.2,0c1.8,0,3.2,0.7,4,1.6c0.8,1,1,2.3,0.7,3.9c-0.3,1.6-1,2.9-2.2,3.9
		c-1.5,1.1-3.2,1.6-5.1,1.6h-2.9l2.1-11H215.4z M215.1,101.2h-0.7l-1.1,5.6h0.3c2,0,3.5-1,4.1-2.8
		C218.1,102.2,216.9,101.2,215.1,101.2z"/>
	<path class="st0" d="M231.8,98.5c1.6,0,2.6,0.6,3.5,1.6c0.8,1.1,1.1,2.4,0.8,3.9c-0.3,1.5-1.1,2.9-2.4,3.9
		c-1.3,1.1-2.6,1.6-4.2,1.6c-1.6,0-2.6-0.6-3.5-1.6c-0.8-1.1-1.1-2.4-0.8-3.9c0.3-1.5,1.1-2.8,2.4-3.9C229,99,230.3,98.5,231.8,98.5
		z M231.3,101.2c-0.9,0-1.4,0.3-2.1,0.8c-0.7,0.6-1.1,1.2-1.3,2c-0.2,0.8,0,1.5,0.5,2c0.5,0.6,1,0.8,1.8,0.8c0.8,0,1.4-0.3,2.1-0.8
		c0.7-0.6,1.1-1.2,1.3-2c0.2-0.8,0-1.5-0.5-2C232.6,101.5,232.2,101.2,231.3,101.2z"/>
	<path class="st0" d="M239,98.5h7l-0.5,2.7h-4.4l-0.3,1.5h3.4l-0.5,2.7h-3.4l-0.8,4.2h-2.6L239,98.5z"/>
	<path class="st0" d="M251.3,98.6h2.5l-1.6,8.3h4.5l-0.5,2.7h-7L251.3,98.6z"/>
	<path class="st0" d="M257.7,109.6l2.1-11h2.5l-2.1,11H257.7z"/>
	<path class="st0" d="M269.3,98.5c1.6,0,2.8,0.8,3.6,1.7l0.1,0.2l-2.2,1.9l-0.1-0.2c-0.5-0.6-1.1-0.9-2-0.9c-0.9,0-1.6,0.3-2.3,0.8
		c-0.7,0.6-1.1,1.2-1.3,2c-0.2,0.8,0,1.5,0.5,2c0.5,0.6,1.1,0.8,2,0.8c1.1,0,2.2-0.6,2.8-1.4h-2.9l0.5-2.4h5.9l0,0.2
		c-0.3,2.1-1.2,3.6-2.5,4.6c-1.3,1.1-2.8,1.6-4.4,1.6c-1.6,0-2.8-0.5-3.7-1.6c-0.8-1.1-1.1-2.4-0.8-3.9c0.3-1.5,1.1-2.9,2.4-3.9
		c1.3-1.1,2.8-1.6,4.4-1.6L269.3,98.5L269.3,98.5z"/>
	<path class="st0" d="M276.5,98.6h2.5l-0.8,4.2h3.4l0.8-4.2h2.5l-2.1,11h-2.5l0.8-4.2h-3.4l-0.8,4.2h-2.5L276.5,98.6z"/>
	<path class="st0" d="M286.5,98.6h8l-0.5,2.7h-2.6l-1.5,8.3H287l1.6-8.3H286L286.5,98.6z"/>
</g>
<rect x="6.5" y="89.2" class="st1" width="288" height="2.2"/>
<g>
	<g>
		<path class="st0" d="M232.6,79.5c-3-2.5-3.8-5.8-3.8-8.6c0-2,0.7-5.4,3.5-8c2.2-1.9,5.1-3.1,9.6-3.1c1.9,0,3,0.1,4.4,0.3
			c1.1,0.2,2.1,0.4,3,0.5c0.3,0,0.4,0.2,0.4,0.3c0,0.2-0.1,0.6-0.1,1.6c-0.1,1-0.1,2.6-0.1,3.1c0,0.4-0.1,0.7-0.4,0.7
			c-0.2,0-0.3-0.2-0.3-0.6c0-0.9-0.4-2-1.2-2.7c-1-1-3-1.7-5.8-1.7c-2.6,0-4.3,0.5-5.7,1.6c-2.2,1.9-2.8,4.7-2.8,7.6
			c0,6.9,5.3,10.2,9.4,10.2c2.7,0,4.1-0.2,5.3-1.5c0.5-0.6,0.9-1.4,1-2c0.1-0.4,0.1-0.6,0.4-0.6c0.2,0,0.3,0.3,0.3,0.5
			c0,0.3-0.3,2.9-0.7,3.9c-0.1,0.5-0.3,0.7-0.8,0.9c-1.2,0.5-3.5,0.7-5.4,0.7C238.8,82.7,235.3,81.8,232.6,79.5z"/>
		<path class="st0" d="M254.8,71.3v-2.1h16.1v2.1H254.8z M254.8,77.8v-2.1h16.1v2.1H254.8z"/>
	</g>
	<g id="Mb4Xs9.tif">
		<g>
			<path class="st0" d="M280.2,53.7c1.5,0.4,2.4,1.5,2.8,2.8c0.6,1.9,1.2,3.8,1.7,5.7c1,4.1,1.9,8.3,2.9,12.4
				c0.3,1.1,0.7,2.2,1.2,3.2c0.5,1,1.2,1.7,2.4,1.7c1,0,1.8-0.4,2.2-1.3c0.2-0.4,0.3-0.9,0.4-1.3c0.1-0.6,0.1-0.6,0.8-0.5
				c-0.1,1.6-0.1,3.2-1.1,4.6c-1.4,2-4.3,1.8-5.6-0.3c-0.8-1.3-1.1-2.8-1.5-4.3c-0.6-2.5-1.1-5-1.7-7.5c0,0,0,0-0.1-0.1
				c-0.1,0.2-0.2,0.3-0.2,0.5c-1.8,4.1-3.6,8.3-5.5,12.4c-0.2,0.4-0.3,0.5-0.8,0.5c-0.9,0-1.8,0-2.7,0c-0.1,0-0.3,0-0.5,0
				c0.1-0.2,0.2-0.4,0.2-0.5c2.7-5.8,5.4-11.6,8.1-17.4c0.2-0.4,0.3-0.7,0.1-1.1c-0.4-1.4-0.8-2.8-1.3-4.2c-0.2-0.6-0.6-1.1-1-1.6
				c-1.1-1.2-3-0.9-3.9,0.6c-0.3,0.5-0.4,1.1-0.6,1.7c-0.1,0.6-0.1,0.6-0.8,0.5c0.1-2.1,0.4-4.1,2-5.6c0.4-0.4,1-0.6,1.4-0.8
				C279.5,53.7,279.9,53.7,280.2,53.7z"/>
		</g>
	</g>
</g>
</svg>
